<svg width="21" height="21" viewBox="0 0 21 21" fill="none" xmlns="http://www.w3.org/2000/svg">
<mask id="mask0_1_37478" style="mask-type:alpha" maskUnits="userSpaceOnUse" x="0" y="0" width="21" height="21">
<rect x="0.894531" width="20.0571" height="20.0571" fill="#D9D9D9"/>
</mask>
<g mask="url(#mask0_1_37478)">
<path d="M5.37409 14.4161C4.17345 14.4161 3.16181 13.9829 2.33919 13.1166C1.51671 12.2504 1.10547 11.21 1.10547 9.9956C1.10547 8.7951 1.51887 7.76926 2.34567 6.91808C3.17247 6.06677 4.18194 5.64111 5.37409 5.64111C5.8471 5.64111 6.30528 5.72204 6.74863 5.88389C7.19184 6.0456 7.58915 6.29255 7.94057 6.62475L9.91578 8.45684L9.24721 9.10933L7.34763 7.32382C7.07546 7.07422 6.77036 6.88939 6.43231 6.76933C6.09427 6.64926 5.74132 6.58923 5.37346 6.58923C4.44053 6.58923 3.65398 6.92289 3.01382 7.59021C2.37367 8.25753 2.05359 9.05953 2.05359 9.99623C2.05359 10.9467 2.37158 11.7629 3.00755 12.4449C3.64339 13.127 4.43203 13.468 5.37346 13.468C5.73282 13.468 6.08152 13.408 6.41957 13.2879C6.75761 13.1678 7.06697 12.9873 7.34763 12.7464L13.9097 6.62475C14.2556 6.29255 14.6511 6.0456 15.0962 5.88389C15.5412 5.72204 15.9969 5.64111 16.4634 5.64111C17.664 5.64111 18.6778 6.06649 19.5046 6.91725C20.3314 7.76801 20.7448 8.79364 20.7448 9.99414C20.7448 11.2086 20.3314 12.2492 19.5046 13.116C18.6778 13.9827 17.664 14.4161 16.4634 14.4161C15.9973 14.4161 15.5422 14.3347 15.098 14.1719C14.654 14.0089 14.2579 13.7694 13.9097 13.4534L11.9762 11.6133L12.6367 10.9527L14.5105 12.7464C14.7635 12.9939 15.0625 13.176 15.4075 13.2927C15.7525 13.4096 16.1047 13.468 16.464 13.468C17.4055 13.468 18.1962 13.1265 18.8364 12.4436C19.4766 11.7608 19.7966 10.9441 19.7966 9.99351C19.7966 9.05696 19.4731 8.25544 18.826 7.58895C18.1788 6.92247 17.3915 6.58923 16.464 6.58923C16.1047 6.58923 15.756 6.65358 15.4179 6.78228C15.0799 6.91084 14.7774 7.0956 14.5105 7.33657L7.94057 13.4663C7.59458 13.7899 7.19692 14.029 6.74759 14.1838C6.29825 14.3387 5.84042 14.4161 5.37409 14.4161Z" fill="#1067FF"/>
</g>
</svg>
