<svg width="19" height="20" viewBox="0 0 19 20" fill="none" xmlns="http://www.w3.org/2000/svg">
<path d="M10.8052 19.339C10.744 19.3564 10.6816 19.3642 10.6179 19.3622C10.1527 19.3436 9.82588 18.7551 9.88984 18.048C9.97355 17.2378 10.0628 16.426 10.1574 15.6127C10.1657 15.5352 10.1776 15.4583 10.193 15.3819C10.2084 15.3054 10.2273 15.2299 10.2495 15.1552C10.2718 15.0805 10.2974 15.007 10.3264 14.9346C10.3554 14.8623 10.3877 14.7914 10.4231 14.722C10.4586 14.6526 10.4971 14.5849 10.5387 14.5191C10.5803 14.4531 10.6248 14.3892 10.6723 14.3274C10.7198 14.2655 10.7699 14.206 10.8228 14.1488C10.8757 14.0914 10.9311 14.0367 10.989 13.9845L11.1378 13.8554C11.5426 13.4956 11.9497 13.1146 12.3591 12.7122C12.8545 12.2269 13.3845 11.7422 13.9489 11.2585C14.2735 10.9805 14.7631 10.9224 15.0329 11.1258C15.297 11.3259 15.2284 11.7167 14.9167 11.9992C14.3258 12.5249 13.7733 13.0525 13.2593 13.5821C13.4384 13.4786 13.621 13.3763 13.8059 13.2727C14.8771 12.6714 15.8517 11.6794 16.2693 10.6188L16.6462 9.64772C16.8008 9.24409 17.3568 8.9185 17.893 8.91965C18.4292 8.92081 18.7153 9.24294 18.5338 9.64541C18.3011 10.1671 18.0686 10.6893 17.836 11.2119C17.2323 12.5645 16.0786 13.8868 14.8619 14.9219C14.6115 15.1335 14.3692 15.3456 14.135 15.5581C13.7879 15.8705 13.4756 16.2146 13.1983 16.5904C12.921 16.9661 12.6843 17.366 12.4882 17.7899C12.1253 18.5516 11.5577 19.1343 11.0133 19.2831L10.8052 19.339ZM7.98356 19.339L7.77654 19.2843C7.23343 19.1354 6.6647 18.5528 6.30297 17.791C6.10636 17.3673 5.86939 16.9675 5.59186 16.5917C5.31443 16.2159 5.00203 15.8717 4.65486 15.5592C4.42222 15.346 4.17995 15.1339 3.92795 14.9231C2.71139 13.8915 1.55764 12.5657 0.953933 11.2166C0.721391 10.6947 0.488752 10.1726 0.256114 9.65003C0.0781918 9.23947 0.361982 8.92196 0.902781 8.92081C1.44358 8.91965 1.99488 9.24525 2.14959 9.64888L2.52643 10.62C2.94402 11.6806 3.92216 12.6727 4.9898 13.2739C5.17475 13.3774 5.35739 13.4797 5.53647 13.5833C5.02236 13.0545 4.4699 12.5268 3.87911 12.0004C3.5616 11.7179 3.49292 11.327 3.75696 11.1271C4.02447 10.9235 4.51643 10.9816 4.84097 11.2596C5.40623 11.7434 5.93615 12.228 6.4309 12.7133C6.83954 13.1111 7.24538 13.4918 7.64862 13.8554L7.79745 13.9891C7.85534 14.0414 7.91073 14.0962 7.96362 14.1534C8.0165 14.2107 8.06669 14.2702 8.11408 14.3321C8.16158 14.3939 8.20608 14.4578 8.24769 14.5237C8.28931 14.5896 8.32784 14.6572 8.36329 14.7267C8.39874 14.796 8.43101 14.8669 8.46001 14.9393C8.489 15.0117 8.51463 15.0852 8.53688 15.1598C8.55923 15.2345 8.57801 15.3101 8.59343 15.3865C8.60884 15.4629 8.62069 15.5399 8.62907 15.6173C8.72366 16.4299 8.81287 17.2416 8.89658 18.0527C8.96054 18.7598 8.63138 19.3483 8.16851 19.3669C8.10541 19.3671 8.04376 19.3577 7.98356 19.339ZM7.67655 5.60858H10.9855C11.7996 5.60858 12.5207 5.95749 12.879 6.46688L9.39326 7.9602L5.90397 6.46226C6.2157 5.95518 6.87055 5.60858 7.67655 5.60858ZM9.4025 5.1829C9.36532 5.1828 9.32814 5.18174 9.29095 5.17981C9.25387 5.17789 9.21678 5.175 9.17979 5.17124C9.1427 5.16739 9.10581 5.16276 9.06911 5.15718C9.03231 5.15159 8.9957 5.14513 8.95919 5.13772C8.92268 5.1303 8.88646 5.12201 8.85044 5.11286C8.81431 5.10371 8.77857 5.09369 8.74293 5.08281C8.70738 5.07183 8.67213 5.06007 8.63716 5.04745C8.60219 5.03474 8.56751 5.02125 8.53322 5.0069C8.49883 4.99255 8.46492 4.97742 8.4313 4.96134C8.39778 4.94534 8.36454 4.92858 8.33179 4.91086C8.29904 4.89323 8.26677 4.87483 8.23488 4.85556C8.20309 4.83639 8.17169 4.81636 8.14086 4.79565C8.10994 4.77484 8.0796 4.75336 8.04983 4.73111C8.01997 4.70885 7.99078 4.68583 7.96207 4.66213C7.93337 4.63853 7.90534 4.61406 7.87779 4.58902C7.85033 4.56397 7.82346 4.53825 7.79725 4.51186C7.77096 4.48546 7.74543 4.45849 7.72057 4.43084C7.69562 4.4032 7.67145 4.37497 7.64794 4.34617C7.62434 4.31737 7.60161 4.28789 7.57955 4.25803C7.55739 4.22807 7.5361 4.19763 7.51549 4.16661C7.49497 4.13559 7.47512 4.10409 7.45605 4.0722C7.43707 4.04022 7.41877 4.00776 7.40134 3.97491C7.3839 3.94206 7.36733 3.90883 7.35144 3.87511C7.33564 3.84149 7.32071 3.80739 7.30655 3.773C7.29239 3.73861 7.27909 3.70393 7.26666 3.66887C7.25424 3.6338 7.24268 3.59845 7.23199 3.56281C7.2212 3.52717 7.21137 3.49133 7.20241 3.45521C7.19355 3.41908 7.18546 3.38277 7.17833 3.34626C7.1711 3.30975 7.16484 3.27314 7.15945 3.23634C7.15415 3.19945 7.14962 3.16255 7.14616 3.12556C7.14259 3.08848 7.13989 3.05139 7.13816 3.01421C7.13643 2.97712 7.13566 2.93994 7.13566 2.90275C7.13575 2.86547 7.13681 2.82829 7.13874 2.7912C7.14066 2.75402 7.14346 2.71693 7.14721 2.67994C7.15088 2.64295 7.1555 2.60605 7.16109 2.56926C7.16658 2.53246 7.17303 2.49585 7.18045 2.45934C7.18777 2.42283 7.19596 2.38661 7.20511 2.35059C7.21417 2.31446 7.22418 2.27863 7.23507 2.24308C7.24595 2.20753 7.25771 2.17218 7.27033 2.13721C7.28294 2.10224 7.29633 2.06757 7.31069 2.03318C7.32504 1.99888 7.34017 1.96488 7.35616 1.93135C7.37205 1.89774 7.38891 1.8645 7.40644 1.83175C7.42407 1.799 7.44247 1.76663 7.46164 1.73474C7.4809 1.70296 7.50084 1.67155 7.52156 1.64063C7.54227 1.60971 7.56375 1.57936 7.586 1.5496C7.60816 1.51973 7.63108 1.49045 7.65478 1.46174C7.67848 1.43304 7.70275 1.40491 7.7278 1.37736C7.75284 1.3499 7.77857 1.32293 7.80486 1.29673C7.83126 1.27043 7.85823 1.2449 7.88588 1.21995C7.91343 1.195 7.94165 1.17073 7.97046 1.14722C7.99926 1.12362 8.02864 1.10079 8.0585 1.07873C8.08846 1.05658 8.1189 1.03519 8.14982 1.01458C8.18084 0.993962 8.21225 0.974118 8.24423 0.955045C8.27611 0.935971 8.30858 0.917765 8.34142 0.900233C8.37418 0.882797 8.40751 0.866132 8.44113 0.850237C8.47475 0.834343 8.50885 0.819315 8.54324 0.805154C8.57763 0.790994 8.61231 0.7777 8.64737 0.765177C8.68244 0.752654 8.71769 0.741095 8.75333 0.730306C8.78898 0.719613 8.82481 0.709691 8.86094 0.700732C8.89706 0.691773 8.93328 0.683585 8.96979 0.676457C9.0063 0.669232 9.043 0.662874 9.0798 0.65748C9.1166 0.652085 9.15349 0.647558 9.19058 0.643993C9.22757 0.640333 9.26466 0.637732 9.30184 0.635902C9.33902 0.634168 9.37621 0.633301 9.41339 0.633301C9.45057 0.633397 9.48776 0.634264 9.52494 0.636191C9.56203 0.638021 9.59912 0.640815 9.6362 0.644475C9.67319 0.648232 9.71009 0.65276 9.74689 0.65825C9.78368 0.663741 9.82029 0.670195 9.8568 0.677516C9.89331 0.684741 9.92953 0.692929 9.96565 0.702081C10.0017 0.711136 10.0375 0.721058 10.0732 0.731943C10.1087 0.742732 10.1441 0.754388 10.179 0.767008C10.2141 0.779531 10.2488 0.793017 10.2832 0.807274C10.3175 0.821531 10.3515 0.836655 10.3851 0.852549C10.4187 0.868444 10.4519 0.885205 10.4847 0.902834C10.5175 0.920366 10.5499 0.938669 10.5818 0.957838C10.6137 0.977008 10.6451 0.996949 10.676 1.01766C10.7069 1.03827 10.7373 1.05976 10.7671 1.08191C10.797 1.10407 10.8264 1.12699 10.8551 1.1506C10.8838 1.17429 10.9119 1.19857 10.9395 1.22352C10.967 1.24856 10.994 1.27419 11.0203 1.30058C11.0466 1.32688 11.0722 1.35385 11.0972 1.3814C11.1221 1.40895 11.1464 1.43718 11.17 1.46589C11.1936 1.49469 11.2164 1.52397 11.2386 1.55393C11.2607 1.58379 11.2821 1.61423 11.3028 1.64516C11.3234 1.67608 11.3434 1.70748 11.3624 1.73946C11.3815 1.77135 11.3999 1.80372 11.4174 1.83657C11.4349 1.86932 11.4516 1.90255 11.4675 1.93617C11.4834 1.96979 11.4985 2.0038 11.5127 2.03819C11.527 2.07258 11.5403 2.10725 11.5529 2.14232C11.5654 2.17738 11.5771 2.21264 11.5879 2.24828C11.5986 2.28383 11.6085 2.31966 11.6175 2.35579C11.6266 2.39191 11.6348 2.42813 11.642 2.46464C11.6492 2.50115 11.6556 2.53776 11.6611 2.57455C11.6665 2.61135 11.6711 2.64825 11.6747 2.68533C11.6783 2.72232 11.6811 2.75941 11.6829 2.7966C11.6847 2.83378 11.6856 2.87087 11.6856 2.90815C11.6855 2.94543 11.6846 2.98271 11.6826 3.01989C11.6807 3.05717 11.6779 3.09435 11.6742 3.13144C11.6705 3.16853 11.6658 3.20552 11.6603 3.24241C11.6547 3.27931 11.6483 3.31601 11.6409 3.35262C11.6336 3.38912 11.6253 3.42554 11.6162 3.46166C11.6071 3.49779 11.5971 3.53372 11.5862 3.56936C11.5753 3.6051 11.5635 3.64045 11.5509 3.67552C11.5382 3.71058 11.5248 3.74535 11.5104 3.77984C11.4961 3.81423 11.4809 3.84833 11.4649 3.88195C11.449 3.91567 11.4321 3.9489 11.4145 3.98175C11.3968 4.0146 11.3783 4.04706 11.3591 4.07895C11.3399 4.11093 11.3199 4.14243 11.2991 4.17335C11.2783 4.20437 11.2568 4.23481 11.2345 4.26467C11.2123 4.29463 11.1892 4.32401 11.1655 4.35272C11.1418 4.38152 11.1175 4.40975 11.0923 4.4373C11.0673 4.46494 11.0415 4.49182 11.0151 4.51821C10.9887 4.54451 10.9616 4.57014 10.934 4.59518C10.9062 4.62013 10.878 4.64441 10.8491 4.66811C10.8202 4.69171 10.7908 4.71454 10.7608 4.73669C10.7308 4.75885 10.7003 4.78033 10.6693 4.80094C10.6382 4.82166 10.6066 4.8415 10.5747 4.86067C10.5426 4.87974 10.5101 4.89805 10.4773 4.91558C10.4443 4.93311 10.411 4.94987 10.3772 4.96567C10.3435 4.98156 10.3094 4.99669 10.2749 5.01085C10.2404 5.02511 10.2056 5.0384 10.1705 5.05092C10.1353 5.06345 10.0999 5.0751 10.0642 5.08589C10.0285 5.09658 9.99253 5.1065 9.95631 5.11556C9.92019 5.12452 9.88377 5.13261 9.84717 5.13984C9.81056 5.14706 9.77386 5.15342 9.73697 5.15881C9.70007 5.16421 9.66298 5.16873 9.6259 5.1723C9.58881 5.17586 9.55163 5.17856 9.51435 5.18039C9.47707 5.18212 9.43979 5.18299 9.4025 5.1829ZM9.39326 12.5494L5.49457 10.5501C5.48022 10.5421 5.46798 10.5316 5.45806 10.5185C5.44814 10.5053 5.4413 10.4906 5.43764 10.4746L4.71766 6.64712C4.71294 6.62246 4.71525 6.59838 4.72469 6.57506C4.72758 6.56794 4.73125 6.56119 4.73558 6.55483C4.73992 6.54848 4.74483 6.5426 4.75032 6.53721C4.75581 6.53181 4.76178 6.527 4.76814 6.52276C4.77459 6.51861 4.78143 6.51505 4.78856 6.51216C4.79569 6.50927 4.80301 6.50715 4.81062 6.5058C4.81814 6.50436 4.82575 6.50368 4.83345 6.50378C4.84116 6.50388 4.84877 6.50474 4.85628 6.50638C4.8638 6.50802 4.87112 6.51033 4.87815 6.51341L9.39326 8.4486L13.9094 6.51341C13.9165 6.51033 13.9238 6.50802 13.9313 6.50638C13.9388 6.50474 13.9464 6.50388 13.9541 6.50378C13.9618 6.50368 13.9694 6.50436 13.977 6.5058C13.9846 6.50715 13.9919 6.50927 13.999 6.51216C14.0062 6.51505 14.013 6.51861 14.0194 6.52276C14.0259 6.527 14.0319 6.53181 14.0373 6.53721C14.0427 6.5426 14.0477 6.54848 14.052 6.55483C14.0563 6.56119 14.06 6.56794 14.063 6.57506C14.0732 6.59828 14.0755 6.62236 14.0699 6.64712L13.3476 10.4746C13.344 10.4906 13.3371 10.5053 13.3272 10.5185C13.3173 10.5316 13.3051 10.5421 13.2907 10.5501L9.39326 12.5494Z" fill="#616161"/>
</svg>
