<svg width="20" height="19" viewBox="0 0 20 19" fill="none" xmlns="http://www.w3.org/2000/svg">
<path d="M18.6863 9.76262H17.889V17.9387C17.8856 17.9939 17.8768 18.0481 17.8629 18.1015C17.8487 18.1549 17.8296 18.2065 17.8056 18.2563C17.7816 18.306 17.7527 18.3527 17.7194 18.3969C17.6861 18.441 17.6489 18.4815 17.6079 18.5181C17.5666 18.555 17.5222 18.5875 17.4747 18.6156C17.4272 18.6437 17.3774 18.667 17.3252 18.6853C17.2734 18.7038 17.2199 18.717 17.1652 18.7247C17.1105 18.7327 17.0558 18.7353 17.0005 18.7325H12.291V13.1579C12.291 13.1197 12.2874 13.0818 12.2799 13.0443C12.2724 13.0067 12.2613 12.9703 12.2466 12.935C12.2321 12.8996 12.2141 12.8661 12.1929 12.8344C12.1717 12.8026 12.1475 12.7732 12.1206 12.7461C12.0935 12.719 12.0641 12.6948 12.0324 12.6736C12.0006 12.6525 11.9671 12.6344 11.9317 12.6197C11.8963 12.605 11.8599 12.5942 11.8225 12.5867C11.7851 12.5792 11.7471 12.5753 11.7089 12.5753H8.29202C8.25382 12.5753 8.21588 12.579 8.17845 12.5864C8.14102 12.5939 8.10437 12.605 8.06927 12.6197C8.03391 12.6344 8.00035 12.6522 7.9686 12.6736C7.9366 12.6948 7.90743 12.719 7.88033 12.7459C7.85323 12.773 7.82922 12.8024 7.8078 12.8344C7.78663 12.8661 7.76882 12.8996 7.75411 12.935C7.7394 12.9703 7.72856 13.0067 7.72107 13.0443C7.71359 13.0818 7.70997 13.1197 7.70997 13.1579V18.7322H2.9999C2.94518 18.7351 2.8902 18.7327 2.83574 18.725C2.78128 18.717 2.72811 18.7041 2.67623 18.6858C2.62435 18.6675 2.57453 18.6445 2.5273 18.6164C2.4798 18.5883 2.43567 18.556 2.39463 18.5194C2.35359 18.4828 2.31642 18.4423 2.28338 18.3984C2.25008 18.3545 2.22143 18.3076 2.19768 18.2581C2.17368 18.2085 2.15458 18.1572 2.1409 18.1038C2.12696 18.0506 2.11844 17.9965 2.11509 17.9415V9.76262H1.31442C0.427021 9.76262 -0.0538463 8.92703 0.527685 8.39096L9.29015 0.288934C9.34487 0.242498 9.40346 0.201222 9.46541 0.165363C9.52761 0.129247 9.5924 0.0988052 9.65977 0.0740394C9.72739 0.0495316 9.79631 0.0309572 9.86703 0.0185743C9.93776 0.00593349 10.009 0 10.081 0C10.1528 0.00025796 10.224 0.00670742 10.2947 0.0193483C10.3655 0.0319891 10.4344 0.0508215 10.5017 0.0758452C10.5691 0.100611 10.6339 0.13131 10.6958 0.167685C10.7578 0.20406 10.8159 0.245594 10.8706 0.29203C13.7393 2.99253 16.6092 5.69304 19.4802 8.39354C20.0509 8.93503 19.5706 9.76262 18.6863 9.76262Z" fill="#616161"/>
</svg>
