<svg width="21" height="19" viewBox="0 0 21 19" fill="none" xmlns="http://www.w3.org/2000/svg">
<mask id="mask0_1_26912" style="mask-type:luminance" maskUnits="userSpaceOnUse" x="0" y="8" width="21" height="11">
<path d="M0 8.62939H20.8952V18.9549H0V8.62939Z" fill="white"/>
</mask>
<g mask="url(#mask0_1_26912)">
<path d="M20.8916 16.8874V8.68018C20.7807 8.789 20.6602 8.89291 20.5372 8.98749C20.4239 9.07507 20.3058 9.1554 20.1827 9.23132C19.7787 9.47722 19.3297 9.64513 18.8596 9.71846C18.2264 9.81537 17.5718 9.77753 16.9316 9.77753H12.404C12.3877 9.77753 12.3711 9.77753 12.3545 9.7752V10.0685C12.3545 10.104 12.3569 10.1372 12.3545 10.1724C12.3449 10.3642 12.2032 10.5062 12.012 10.5155C11.6741 10.5321 11.3313 10.5155 10.9911 10.5155H9.34178C9.19771 10.5155 9.05364 10.5178 8.90931 10.5155C8.6945 10.5108 8.54551 10.3665 8.54318 10.1488C8.54085 10.026 8.54085 9.90062 8.54085 9.77753C8.5266 9.77987 8.51001 9.77987 8.49602 9.77987C8.48643 9.77987 8.47451 9.77987 8.46518 9.77987C7.82258 9.78945 7.17737 9.77987 6.53477 9.77987H3.66375C2.95481 9.77987 2.22954 9.82495 1.54418 9.60496C1.25837 9.51272 0.979565 9.38731 0.717339 9.23365C0.594258 9.16032 0.476101 9.08207 0.362867 8.99708C0.237455 8.9025 0.119297 8.80067 0.0083955 8.69184V17.6373C0.0083955 17.7034 0.00606348 17.7697 0.0107275 17.8358C0.0578868 18.4603 0.566014 18.9427 1.19204 18.9523C1.3457 18.9547 1.49702 18.9523 1.65068 18.9523H19.0675C19.2709 18.9523 19.4763 18.9523 19.6795 18.9523C20.3695 18.95 20.8893 18.4059 20.8916 17.7223C20.8916 17.4386 20.8916 17.1642 20.8916 16.8874Z" fill="#616161"/>
</g>
<mask id="mask1_1_26912" style="mask-type:luminance" maskUnits="userSpaceOnUse" x="0" y="0" width="21" height="9">
<path d="M0 0H20.8952V8.62936H0V0Z" fill="white"/>
</mask>
<g mask="url(#mask1_1_26912)">
<path d="M20.8833 5.02159V4.20796C20.8385 3.58816 20.3327 3.10102 19.7043 3.09143C19.6616 3.09143 19.6214 3.09143 19.5789 3.09143H14.5129V1.32477C14.5129 0.96512 14.4113 0.62464 14.1515 0.364487C13.9079 0.118326 13.5796 0.0048334 13.237 0.0025013C12.9274 0.0025013 12.6203 0.0025013 12.3107 0.0025013H7.78574C7.72666 0.0025013 7.66758 0.00016927 7.61083 0.0025013C6.93272 0.0167527 6.39868 0.553642 6.3821 1.23253C6.36785 1.84974 6.3751 2.47188 6.37977 3.09143H1.44127C1.36819 3.09143 1.2972 3.09143 1.22387 3.09143C0.907226 3.09143 0.611833 3.20026 0.37811 3.41792C0.151123 3.63065 0.0306343 3.92164 0.0117188 4.22688V5.37399C0.0117188 5.53956 0.0117188 5.70281 0.0117188 5.86812C0.0117188 5.93912 0.0117187 6.00779 0.0163828 6.07879C0.018974 6.12854 0.0236381 6.1757 0.0283022 6.22545C0.0283022 6.23244 0.0306343 6.2397 0.0306343 6.24669C0.0425536 6.31536 0.0518818 6.38377 0.0661332 6.4501C0.101632 6.61568 0.153456 6.77892 0.212534 6.93724C0.212534 6.93957 0.212534 6.93957 0.214866 6.94216C0.214866 6.94449 0.214866 6.94449 0.217457 6.94683C0.219789 6.95149 0.219789 6.95382 0.222121 6.95875C0.236114 6.99165 0.252697 7.02482 0.269281 7.05799C0.300116 7.1194 0.330691 7.17848 0.363858 7.23781C0.368522 7.24714 0.373186 7.25673 0.380442 7.26373C0.425269 7.33939 0.472428 7.41505 0.524511 7.48605C0.545758 7.51688 0.569338 7.54279 0.588253 7.57363C0.585921 7.56897 0.583589 7.56404 0.581257 7.55938C0.585921 7.56637 0.588253 7.5713 0.592917 7.57596C0.63308 7.62571 0.675835 7.6752 0.720662 7.72262C0.789069 7.79595 0.862399 7.86695 0.938061 7.93536C0.968636 7.96386 0.999471 7.98977 1.03264 8.01594C1.0373 8.02061 1.0443 8.02527 1.05155 8.03019C1.09172 8.0561 1.10804 8.06543 1.11063 8.06802C1.10804 8.06802 1.09638 8.05844 1.0798 8.04911C1.12929 8.08202 1.17671 8.11985 1.2262 8.15301C1.35861 8.23826 1.49568 8.31393 1.63742 8.38C1.77449 8.42275 1.70116 8.40617 1.65633 8.38959C1.661 8.39192 1.66333 8.39192 1.66825 8.39425C1.70841 8.4085 1.74625 8.42509 1.78641 8.43701C1.86181 8.46292 1.93747 8.4865 2.01314 8.50774C2.09579 8.52925 2.17845 8.54817 2.2637 8.56449C2.29194 8.56942 2.32019 8.57408 2.34869 8.57874C2.36527 8.58107 2.38186 8.58107 2.39585 8.58341C2.60625 8.60232 2.81899 8.59766 3.02913 8.59766H8.49934C8.51593 8.59766 8.53251 8.59766 8.54883 8.59999V8.03019C8.54883 7.86462 8.52525 7.68712 8.66 7.56404C8.77582 7.4578 8.92688 7.47413 9.07121 7.47413H11.9303C11.9585 7.47413 11.9894 7.47413 12.0176 7.47413C12.2019 7.48372 12.3319 7.61146 12.3555 7.7887C12.3578 7.79828 12.3578 7.80761 12.3578 7.8172C12.3578 7.82186 12.3578 7.82679 12.3578 7.83145V8.60232C12.3744 8.59999 12.391 8.59999 12.4076 8.59999H12.4382C13.0645 8.58833 13.6905 8.59999 14.3144 8.59999H18.2084C18.31 8.59999 18.4093 8.59533 18.5108 8.586C18.5297 8.58341 18.551 8.58107 18.5699 8.57874C18.5937 8.57408 18.6197 8.57175 18.6432 8.56708C18.7259 8.5505 18.8111 8.53392 18.8938 8.51034C18.9765 8.48883 19.0568 8.46292 19.1371 8.43441C19.1749 8.42042 19.2104 8.40617 19.2483 8.39192C19.3947 8.32325 19.5341 8.24992 19.6688 8.1626C19.7136 8.1341 19.7561 8.10585 19.7986 8.07502C19.8106 8.06543 19.8484 8.03719 19.865 8.02527L19.8673 8.02294C19.8696 8.02061 19.8743 8.01827 19.8743 8.01594C19.9075 7.98977 19.938 7.96153 19.9689 7.93536C20.0445 7.86928 20.1153 7.79828 20.1863 7.72262C20.2311 7.6752 20.2736 7.62804 20.3138 7.57596C20.3161 7.5713 20.321 7.56897 20.3234 7.56404C20.3423 7.53347 20.3682 7.50263 20.3894 7.47413C20.4343 7.41039 20.4767 7.34405 20.5146 7.27798C20.5218 7.26373 20.5312 7.24947 20.5384 7.23781C20.5737 7.17381 20.6092 7.11007 20.64 7.04374C20.654 7.0129 20.6706 6.97999 20.6848 6.94916C20.7439 6.79317 20.796 6.63459 20.8312 6.46902C20.8431 6.41693 20.8525 6.36252 20.8621 6.31044V6.3081V6.30577C20.8621 6.30344 20.8621 6.30111 20.8621 6.29878C20.8621 6.29644 20.8621 6.29411 20.8644 6.29152C20.8667 6.26794 20.8714 6.23711 20.8737 6.21819C20.8786 6.1757 20.881 6.13087 20.8833 6.08811C20.8856 6.01971 20.888 5.95104 20.8903 5.88238V5.41415C20.8856 5.27449 20.8833 5.14933 20.8833 5.02159ZM13.3386 1.24186C13.3386 1.24419 13.3386 1.24652 13.3409 1.24652V1.24885C13.3433 1.26077 13.3456 1.26777 13.3409 1.25611C13.3386 1.25844 13.3339 1.25378 13.3313 1.24885C13.3433 1.86399 13.3386 2.47888 13.3339 3.09376H7.56134V1.37426C7.56134 1.3341 7.56134 1.29161 7.56134 1.25144C7.55409 1.26077 7.54942 1.2631 7.54709 1.26077C7.54242 1.26777 7.54242 1.25378 7.54476 1.23719C7.53284 1.25144 7.52584 1.25378 7.54476 1.23253C7.54476 1.22294 7.54709 1.21594 7.54942 1.20636C7.54942 1.20636 7.54942 1.20636 7.54709 1.20636C7.54709 1.20636 7.54709 1.20636 7.54942 1.20636C7.55175 1.20169 7.55175 1.1947 7.55409 1.18977C7.5375 1.18977 7.54242 1.18511 7.55642 1.18278C7.55875 1.17086 7.56367 1.16619 7.56367 1.18045C7.56834 1.18045 7.573 1.17811 7.58026 1.17811C7.58026 1.17552 7.58026 1.17552 7.58026 1.17319V1.17552C7.58958 1.17319 7.59658 1.17319 7.60617 1.17086C7.6155 1.16153 7.62042 1.1592 7.62275 1.15661C7.62042 1.1592 7.6155 1.16386 7.6085 1.17086C7.62742 1.16853 7.64167 1.16853 7.63441 1.17319C7.63674 1.17552 7.63441 1.18045 7.62508 1.18744C7.644 1.18744 7.66291 1.18744 7.68183 1.18744H13.0715C13.1425 1.18744 13.2109 1.18511 13.2819 1.18744C13.2772 1.18511 13.2749 1.18511 13.2723 1.18278C13.2559 1.17319 13.2606 1.17086 13.2723 1.16853C13.2653 1.16386 13.2676 1.16386 13.2749 1.16853C13.2772 1.16853 13.2819 1.16853 13.2842 1.16853C13.2749 1.16153 13.2699 1.15661 13.2676 1.15427C13.2676 1.15427 13.2749 1.1592 13.2865 1.16853C13.2961 1.16853 13.3054 1.17086 13.315 1.17086C13.3197 1.17086 13.322 1.17319 13.3267 1.17319C13.3267 1.16853 13.3267 1.16619 13.329 1.16619C13.329 1.16619 13.3313 1.16853 13.3313 1.17319C13.3526 1.17811 13.3622 1.18278 13.3313 1.18511C13.3313 1.18977 13.3313 1.19211 13.3313 1.19703C13.3386 1.19936 13.3433 1.20169 13.3456 1.20169C13.3433 1.20169 13.3363 1.20169 13.3313 1.19936V1.20169C13.3339 1.20403 13.3386 1.20636 13.3433 1.21102C13.3409 1.21102 13.3386 1.20869 13.3339 1.20636C13.3339 1.21102 13.3363 1.21361 13.3363 1.21828C13.3433 1.2276 13.3526 1.23719 13.3599 1.24186C13.3526 1.23719 13.3456 1.22994 13.3386 1.22527C13.3386 1.23486 13.3386 1.23719 13.3386 1.24186Z" fill="#616161"/>
</g>
</svg>
