<svg width="20" height="19" viewBox="0 0 20 19" fill="none" xmlns="http://www.w3.org/2000/svg">
<mask id="mask0_1_37471" style="mask-type:luminance" maskUnits="userSpaceOnUse" x="0" y="0" width="20" height="19">
<path d="M0.527344 0H19.2609V18.6751H0.527344V0Z" fill="white"/>
</mask>
<g mask="url(#mask0_1_37471)">
<path d="M17.3028 16.0415V17.9567C17.3028 18.004 17.2982 18.0507 17.289 18.0969C17.2798 18.1431 17.2661 18.188 17.2479 18.2317C17.2301 18.2751 17.2079 18.3167 17.1816 18.3558C17.1555 18.3951 17.1257 18.4313 17.0922 18.4645C17.059 18.498 17.0228 18.5278 16.9835 18.5539C16.9441 18.5802 16.9028 18.6024 16.8591 18.6202C16.8157 18.6384 16.7708 18.6522 16.7246 18.6613C16.6781 18.6705 16.6314 18.6751 16.5844 18.6751H1.25745C1.21023 18.6751 1.16351 18.6705 1.1173 18.6613C1.07109 18.6522 1.02616 18.6386 0.982505 18.6205C0.93885 18.6024 0.897493 18.5804 0.858178 18.5541C0.819118 18.5278 0.782867 18.4982 0.749423 18.4648C0.71598 18.4313 0.686366 18.3951 0.660071 18.356C0.633776 18.3167 0.611821 18.2753 0.593695 18.2317C0.575569 18.188 0.562039 18.1431 0.552848 18.0969C0.543658 18.0507 0.539062 18.004 0.539062 17.9567V0.718392C0.539062 0.671163 0.543658 0.624445 0.552848 0.578237C0.562039 0.532029 0.575569 0.487097 0.593695 0.443442C0.611821 0.399787 0.633776 0.35843 0.660071 0.31937C0.686366 0.280055 0.71598 0.243804 0.749423 0.210361C0.782867 0.177173 0.819118 0.147304 0.858178 0.121008C0.897493 0.0949686 0.93885 0.0727583 0.982505 0.0546325C1.02616 0.0367621 1.07109 0.0229764 1.1173 0.0137858C1.16351 0.00459532 1.21023 0 1.25745 0H16.5844C16.6314 0 16.6781 0.00459532 16.7246 0.0137858C16.7708 0.0232316 16.8157 0.0367621 16.8591 0.0548878C16.9028 0.0727582 16.9441 0.0949687 16.9835 0.121264C17.0228 0.147304 17.059 0.177173 17.0922 0.210616C17.1257 0.243804 17.1555 0.280055 17.1816 0.31937C17.2079 0.358685 17.2301 0.400043 17.2479 0.443442C17.2661 0.487097 17.2798 0.532029 17.289 0.578237C17.2982 0.624445 17.3028 0.671163 17.3028 0.718392V7.42236C17.3028 7.46959 17.2982 7.51631 17.289 7.56252C17.2798 7.60873 17.2663 7.65366 17.2482 7.69731C17.2301 7.74071 17.2079 7.78233 17.1818 7.82139C17.1555 7.8607 17.1257 7.89695 17.0925 7.9304C17.059 7.96358 17.0228 7.99345 16.9835 8.01975C16.9444 8.04579 16.9028 8.068 16.8594 8.08612C16.8157 8.10399 16.7708 8.11778 16.7246 8.12697C16.6781 8.13616 16.6314 8.14076 16.5844 8.14076C16.5372 8.14076 16.4905 8.13616 16.444 8.12697C16.3978 8.11778 16.3529 8.10399 16.3092 8.08612C16.2658 8.068 16.2245 8.04579 16.1852 8.01975C16.1458 7.99345 16.1096 7.96358 16.0761 7.9304C16.043 7.89695 16.0131 7.8607 15.9868 7.82139C15.9608 7.78233 15.9385 7.74071 15.9204 7.69731C15.9023 7.65366 15.8888 7.60873 15.8796 7.56252C15.8704 7.51631 15.8658 7.46959 15.8658 7.42236V1.43678H1.9761V17.2383H15.8658V16.0415C15.8658 15.9943 15.8704 15.9476 15.8796 15.9014C15.8888 15.8552 15.9025 15.8102 15.9204 15.7666C15.9385 15.7232 15.9608 15.6816 15.9868 15.6425C16.0131 15.6032 16.043 15.5669 16.0761 15.5335C16.1096 15.5003 16.1458 15.4704 16.1852 15.4442C16.2245 15.4181 16.2658 15.3959 16.3092 15.3778C16.3529 15.3599 16.3978 15.3461 16.444 15.3369C16.4905 15.3277 16.5372 15.3231 16.5844 15.3231C16.6314 15.3231 16.6781 15.3277 16.7246 15.3369C16.7708 15.3461 16.8157 15.3599 16.8594 15.3778C16.9028 15.3959 16.9444 15.4181 16.9835 15.4442C17.0228 15.4704 17.059 15.5003 17.0925 15.5335C17.1257 15.5669 17.1555 15.6032 17.1818 15.6425C17.2079 15.6816 17.2301 15.7232 17.2482 15.7666C17.2663 15.8102 17.2798 15.8552 17.289 15.9014C17.2982 15.9476 17.3028 15.9943 17.3028 16.0415ZM19.0082 9.06951C18.9747 9.03607 18.9385 9.00645 18.8992 8.98016C18.8601 8.95386 18.8187 8.93191 18.7751 8.91378C18.7314 8.89565 18.6865 8.88212 18.6403 8.87293C18.5941 8.86374 18.5474 8.85915 18.5001 8.85915C18.4532 8.85915 18.4065 8.86374 18.36 8.87293C18.3138 8.88212 18.2688 8.89565 18.2254 8.91378C18.1818 8.93191 18.1404 8.95386 18.1011 8.98016C18.0621 9.00645 18.0258 9.03607 17.9924 9.06951L13.2314 13.8287L11.3446 11.9421C11.3114 11.9076 11.2751 11.877 11.2358 11.8496C11.1967 11.8223 11.1551 11.7993 11.1112 11.7805C11.0673 11.7613 11.0221 11.747 10.9752 11.7371C10.9284 11.7271 10.8812 11.722 10.8335 11.7215C10.7857 11.721 10.7382 11.7253 10.6913 11.7342C10.6443 11.7432 10.5989 11.7567 10.5544 11.7748C10.5103 11.793 10.4684 11.8152 10.4286 11.8415C10.3887 11.868 10.352 11.8981 10.318 11.9318C10.2843 11.9658 10.2542 12.0026 10.2277 12.0424C10.2014 12.0822 10.1791 12.1241 10.161 12.1685C10.1429 12.2127 10.1294 12.2584 10.1204 12.3051C10.1115 12.3521 10.1074 12.3995 10.1077 12.4473C10.1082 12.495 10.1135 12.5422 10.1235 12.589C10.1335 12.6357 10.1477 12.6811 10.1669 12.725C10.1858 12.7687 10.2088 12.8103 10.2361 12.8496C10.2634 12.8889 10.2943 12.9249 10.3288 12.9581L12.7234 15.3522C12.7568 15.3857 12.7931 15.4153 12.8324 15.4416C12.8715 15.4679 12.9131 15.4899 12.9565 15.508C13.0001 15.5261 13.0451 15.5396 13.0913 15.5488C13.1377 15.558 13.1844 15.5626 13.2314 15.5626C13.2787 15.5626 13.3254 15.558 13.3718 15.5488C13.418 15.5396 13.463 15.5261 13.5066 15.508C13.55 15.4899 13.5914 15.4679 13.6307 15.4416C13.67 15.4153 13.7063 15.3857 13.7397 15.3522L19.0082 10.0845C19.0414 10.0514 19.0712 10.0149 19.0973 9.9758C19.1236 9.93648 19.1458 9.89512 19.1636 9.85172C19.1818 9.80807 19.1953 9.76314 19.2045 9.71693C19.2137 9.67072 19.2183 9.624 19.2183 9.57677C19.2183 9.5298 19.2137 9.48308 19.2045 9.43687C19.1953 9.39041 19.1818 9.34573 19.1636 9.30208C19.1458 9.25842 19.1236 9.21707 19.0973 9.17801C19.0712 9.13869 19.0414 9.10244 19.0082 9.069V9.06951ZM12.7525 3.83091H7.96296C7.91522 3.82989 7.86773 3.83347 7.82051 3.84164C7.77328 3.85006 7.72732 3.86308 7.6829 3.88044C7.63823 3.89806 7.59585 3.91976 7.55551 3.9458C7.51543 3.97184 7.47816 4.0017 7.44395 4.03515C7.40949 4.06859 7.37885 4.1051 7.35204 4.14467C7.32498 4.18424 7.30226 4.22611 7.28363 4.27027C7.26499 4.31444 7.25095 4.35988 7.2415 4.40685C7.23206 4.45383 7.22721 4.50131 7.22721 4.54905C7.22721 4.59705 7.23206 4.64427 7.2415 4.69125C7.25095 4.73822 7.26499 4.78392 7.28363 4.82808C7.30226 4.87199 7.32498 4.91386 7.35204 4.95343C7.37885 4.99326 7.40949 5.02977 7.44395 5.06321C7.47816 5.09665 7.51543 5.12627 7.55551 5.15231C7.59585 5.17835 7.63823 5.20005 7.6829 5.21766C7.72732 5.23502 7.77328 5.24804 7.82051 5.25646C7.86773 5.26489 7.91522 5.26846 7.96296 5.26719H12.7525C12.8005 5.26846 12.848 5.26489 12.8952 5.25646C12.9422 5.24804 12.9881 5.23502 13.0328 5.21766C13.0772 5.20005 13.1196 5.17835 13.1599 5.15231C13.2003 5.12627 13.2375 5.09665 13.2718 5.06321C13.306 5.02977 13.3366 4.99326 13.3637 4.95343C13.3905 4.91386 13.4134 4.87199 13.4321 4.82808C13.4505 4.78392 13.4645 4.73822 13.4742 4.69125C13.4837 4.64427 13.4882 4.59705 13.4882 4.54905C13.4882 4.50131 13.4837 4.45383 13.4742 4.40685C13.4645 4.35988 13.4505 4.31444 13.4321 4.27027C13.4134 4.22611 13.3905 4.18424 13.3637 4.14467C13.3366 4.1051 13.306 4.06859 13.2718 4.03515C13.2375 4.0017 13.2003 3.97184 13.1599 3.9458C13.1196 3.91976 13.0772 3.89806 13.0328 3.88044C12.9881 3.86308 12.9422 3.85006 12.8952 3.84164C12.848 3.83347 12.8005 3.82989 12.7525 3.83091ZM5.08939 5.26719C5.13636 5.26719 5.18334 5.26259 5.22955 5.2534C5.27575 5.24421 5.32068 5.23068 5.36434 5.21255C5.40799 5.19443 5.44935 5.17247 5.48867 5.14618C5.52773 5.11988 5.56398 5.09027 5.59742 5.05683C5.63086 5.02338 5.66048 4.98713 5.68677 4.94782C5.71307 4.90876 5.73502 4.8674 5.75315 4.82374C5.77128 4.78009 5.78481 4.73516 5.794 4.68895C5.80319 4.64274 5.80778 4.59602 5.80778 4.5488C5.80778 4.50157 5.80319 4.45485 5.794 4.40864C5.78481 4.36243 5.77128 4.3175 5.75315 4.27385C5.73502 4.23019 5.71281 4.18883 5.68652 4.14952C5.66048 4.11046 5.63061 4.07421 5.59717 4.04076C5.56398 4.00732 5.52747 3.97771 5.48841 3.95141C5.4491 3.92537 5.40774 3.90316 5.36408 3.88504C5.32043 3.86717 5.2755 3.85338 5.22929 3.84419C5.18283 3.835 5.13611 3.8304 5.08913 3.8304C5.04191 3.8304 4.99519 3.83525 4.94872 3.84444C4.90252 3.85363 4.85758 3.86717 4.81393 3.88529C4.77053 3.90342 4.72917 3.92563 4.68986 3.95167C4.65054 3.97796 4.61429 4.00783 4.58085 4.04127C4.54766 4.07446 4.51779 4.11071 4.49175 4.15003C4.46546 4.18934 4.44325 4.2307 4.42538 4.27436C4.40725 4.31801 4.39372 4.36294 4.38453 4.40915C4.37534 4.45536 4.37074 4.50208 4.37074 4.54931C4.37074 4.59653 4.37534 4.64325 4.38453 4.68946C4.39397 4.73567 4.4075 4.7806 4.42563 4.824C4.44376 4.86766 4.46571 4.90901 4.49201 4.94807C4.5183 4.98739 4.54792 5.02364 4.58136 5.05708C4.6148 5.09027 4.65105 5.12014 4.69011 5.14618C4.72943 5.17247 4.77079 5.19468 4.81444 5.21255C4.8581 5.23068 4.90303 5.24421 4.94923 5.2534C4.99544 5.26259 5.04216 5.26719 5.08939 5.26719ZM5.08939 9.0981C5.13636 9.0981 5.18308 9.09351 5.22955 9.08432C5.27575 9.07512 5.32068 9.06159 5.36434 9.04347C5.40774 9.02534 5.44935 9.00339 5.48841 8.97709C5.52773 8.9508 5.56398 8.92118 5.59742 8.88774C5.63086 8.8543 5.66048 8.81805 5.68677 8.77899C5.71307 8.73967 5.73502 8.69831 5.75315 8.65466C5.77128 8.611 5.78481 8.56607 5.794 8.51986C5.80319 8.47366 5.80778 8.42694 5.80778 8.37971C5.80778 8.33248 5.80319 8.28576 5.794 8.23955C5.78481 8.19335 5.77128 8.14841 5.75315 8.10476C5.73502 8.06136 5.71307 8.02 5.68677 7.98069C5.66048 7.94137 5.63086 7.90512 5.59742 7.87168C5.56398 7.83849 5.52773 7.80862 5.48841 7.78258C5.44935 7.75629 5.40774 7.73408 5.36434 7.7162C5.32068 7.69808 5.27575 7.68429 5.22955 7.6751C5.18308 7.66591 5.13636 7.66132 5.08939 7.66132C5.04216 7.66132 4.99544 7.66591 4.94923 7.6751C4.90277 7.68429 4.85784 7.69808 4.81444 7.7162C4.77079 7.73408 4.72943 7.75629 4.69011 7.78258C4.6508 7.80862 4.61455 7.83849 4.5811 7.87168C4.54792 7.90512 4.51805 7.94137 4.49175 7.98069C4.46571 8.02 4.4435 8.06136 4.42538 8.10476C4.4075 8.14841 4.39372 8.19335 4.38453 8.23955C4.37534 8.28576 4.37074 8.33248 4.37074 8.37971C4.37074 8.42694 4.37534 8.47366 4.38453 8.51986C4.39372 8.56607 4.4075 8.611 4.42538 8.65466C4.4435 8.69831 4.46571 8.73967 4.49175 8.77899C4.51805 8.81805 4.54792 8.8543 4.5811 8.88774C4.61455 8.92118 4.6508 8.9508 4.69011 8.97709C4.72943 9.00339 4.77079 9.02534 4.81444 9.04347C4.85784 9.06159 4.90277 9.07512 4.94923 9.08432C4.99544 9.09351 5.04216 9.0981 5.08939 9.0981ZM13.4711 8.37971C13.4711 8.33274 13.4663 8.28602 13.4571 8.23955C13.4479 8.19335 13.4344 8.14841 13.4163 8.10501C13.3981 8.06136 13.3759 8.02 13.3499 7.98094C13.3236 7.94163 13.2937 7.90538 13.2605 7.87219C13.2271 7.83875 13.1908 7.80888 13.1515 7.78284C13.1125 7.75654 13.0708 7.73459 13.0274 7.71646C12.9838 7.69833 12.9389 7.6848 12.8927 7.67561C12.8464 7.66642 12.7997 7.66183 12.7525 7.66183H7.96296C7.91522 7.66055 7.86773 7.66438 7.82051 7.67255C7.77328 7.68097 7.72732 7.69399 7.6829 7.71135C7.63823 7.72897 7.59585 7.75067 7.55551 7.77671C7.51543 7.80275 7.47816 7.83236 7.44395 7.86606C7.40949 7.8995 7.37885 7.93601 7.35204 7.97558C7.32498 8.01515 7.30226 8.05702 7.28363 8.10119C7.26499 8.1451 7.25095 8.19079 7.2415 8.23777C7.23206 8.28474 7.22721 8.33197 7.22721 8.37996C7.22721 8.42796 7.23206 8.47519 7.2415 8.52216C7.25095 8.56914 7.26499 8.61483 7.28363 8.65874C7.30226 8.70291 7.32498 8.74478 7.35204 8.78435C7.37885 8.82392 7.40949 8.86042 7.44395 8.89412C7.47816 8.92757 7.51543 8.95718 7.55551 8.98322C7.59585 9.00926 7.63823 9.03096 7.6829 9.04857C7.72732 9.06593 7.77328 9.07895 7.82051 9.08738C7.86773 9.0958 7.91522 9.09938 7.96296 9.0981H12.7525C12.7997 9.0981 12.8464 9.09351 12.8927 9.08432C12.9389 9.07512 12.9838 9.06159 13.0274 9.04347C13.0711 9.02534 13.1125 9.00339 13.1518 8.97709C13.1908 8.9508 13.2273 8.92118 13.2605 8.88774C13.294 8.8543 13.3238 8.81805 13.3499 8.77899C13.3762 8.73967 13.3984 8.69831 13.4163 8.65466C13.4344 8.611 13.4482 8.56607 13.4574 8.51986C13.4665 8.47366 13.4711 8.42694 13.4711 8.37971ZM5.08939 12.929H7.96296C8.01019 12.929 8.05691 12.9244 8.10311 12.9152C8.14958 12.906 8.19451 12.8925 8.23791 12.8744C8.28156 12.8563 8.32292 12.834 8.36224 12.808C8.40155 12.7817 8.4378 12.7521 8.47125 12.7187C8.50443 12.6852 8.5343 12.649 8.5606 12.6096C8.58664 12.5706 8.60885 12.5292 8.62697 12.4856C8.64484 12.4419 8.65863 12.397 8.66782 12.3508C8.67701 12.3046 8.68161 12.2579 8.68161 12.2106C8.68161 12.1634 8.67701 12.1167 8.66782 12.0705C8.65863 12.0243 8.64484 11.9793 8.62697 11.9357C8.60885 11.8923 8.58664 11.8507 8.5606 11.8116C8.5343 11.7723 8.50443 11.736 8.47125 11.7026C8.4378 11.6694 8.40155 11.6395 8.36224 11.6132C8.32292 11.5872 8.28156 11.565 8.23791 11.5469C8.19451 11.529 8.14958 11.5152 8.10311 11.506C8.05691 11.4968 8.01019 11.4922 7.96296 11.4922H5.08939C5.04216 11.4922 4.99544 11.4968 4.94923 11.506C4.90277 11.5152 4.85784 11.529 4.81444 11.5469C4.77079 11.565 4.72943 11.5872 4.69011 11.6132C4.6508 11.6395 4.61455 11.6694 4.5811 11.7026C4.54792 11.736 4.51805 11.7723 4.49175 11.8116C4.46571 11.8507 4.4435 11.8923 4.42538 11.9357C4.4075 11.9793 4.39372 12.0243 4.38453 12.0705C4.37534 12.1167 4.37074 12.1634 4.37074 12.2106C4.37074 12.2579 4.37534 12.3046 4.38453 12.3508C4.39372 12.397 4.4075 12.4419 4.42538 12.4856C4.4435 12.5292 4.46571 12.5706 4.49175 12.6096C4.51805 12.649 4.54792 12.6852 4.5811 12.7187C4.61455 12.7521 4.6508 12.7817 4.69011 12.808C4.72943 12.834 4.77079 12.8563 4.81444 12.8744C4.85784 12.8925 4.90277 12.906 4.94923 12.9152C4.99544 12.9244 5.04216 12.929 5.08939 12.929Z" fill="#616161"/>
</g>
</svg>
